# AST/ASF file generated using VICON BodyLanguage
# -----------------------------------------------
:version 1.10
:name VICON
:units
  mass 1.0
  length 0.45
  angle deg
:documentation
   .ast/.asf automatically generated from VICON data using
   VICON BodyBuilder and BodyLanguage model FoxedUp or BRILLIANT.MOD
:root
   order TX TY TZ RX RY RZ
   axis XYZ
   position 0 0 0  
   orientation 0 0 0 
:bonedata
  begin
     id 1 
     name lhipjoint
     direction 0.692814 -0.645514 0.321437 
     length 2.38754 
     axis 0 0 0  XYZ
  end
  begin
     id 2 
     name lfemur
     direction 0.34202 -0.939693 0  
     length 6.41921  
     axis 0 0 20  XYZ
    dof rx ry rz
    limits (-160.0 20.0)
           (-70.0 70.0)
           (-60.0 70.0)
  end
  begin
     id 3 
     name ltibia
     direction 0.34202 -0.939693 0   
     length 6.98247   
     axis 0 0 20   XYZ
    dof rx
    limits (-10.0 170.0)
  end
  begin
     id 4 
     name lfoot
     direction 0.0947186 -0.260237 0.960888   
     length 1.83034   
     axis -90 7.62852e-016 20   XYZ
    dof rx rz
    limits (-45.0 90.0)
           (-70.0 20.0)
  end
  begin
     id 5 
     name ltoes
     direction 1.53538e-011 -4.21952e-011 1   
     length 0.920499   
     axis -90 7.62852e-016 20   XYZ
    dof rx
    limits (-90.0 20.0)
  end
  begin
     id 6 
     name rhipjoint
     direction -0.631686 -0.693949 0.345555   
     length 2.2209  
     axis 0 0 0  XYZ 
  end
  begin
     id 7 
     name rfemur
     direction -0.34202 -0.939693 0   
     length 6.49542   
     axis 0 0 -20   XYZ
    dof rx ry rz
    limits (-160.0 20.0)
           (-70.0 70.0)
           (-70.0 60.0)
  end
  begin
     id 8 
     name rtibia
     direction -0.34202 -0.939693 0   
     length 7.21712   
     axis 0 0 -20   XYZ
    dof rx
    limits (-10.0 170.0)
 end
 begin
     id 9 
     name rfoot
     direction -0.0825378 -0.226771 0.970444   
     length 1.89724  
     axis -90 -7.62852e-016 -20   XYZ
    dof rx rz
    limits (-45.0 90.0)
           (-20.0 70.0)
  end
  begin
     id 10 
     name rtoes
     direction -1.53515e-011 -4.22016e-011 1   
     length 0.955868   
     axis -90 -7.62852e-016 -20   XYZ
    dof rx
    limits (-90.0 20.0)
  end
  begin
     id 11 
     name lowerback
     direction -0.0104711 0.984802 -0.173368   
     length 1.84931   
     axis 0 0 0   XYZ
    dof rx ry rz
    limits (-20.0 45.0)
           (-30.0 30.0)
           (-30.0 30.0)
  end
  begin
     id 12 
     name upperback
     direction -0.00286433 0.999996 -0.000382853   
     length 1.85768   
     axis 0 0 0   XYZ
    dof rx ry rz
    limits (-20.0 45.0)
           (-30.0 30.0)
           (-30.0 30.0)
  end
  begin
     id 13 
     name thorax
     direction 0.00167534 0.996793 0.0800069   
     length 1.92   
     axis 0 0 0   XYZ
    dof rx ry rz
    limits (-20.0 45.0)
           (-30.0 30.0)
           (-30.0 30.0)
  end
  begin
     id 14 
     name lowerneck
     direction -0.0672491 0.995415 0.068018   
     length 1.58923   
     axis 0 0 0   XYZ
    dof rx ry rz
    limits (-20.0 45.0)
           (-30.0 30.0)
           (-30.0 30.0)
  end
  begin
     id 15 
     name upperneck
     direction 0.0958019 0.982476 -0.159884   
     length 1.60189   
     axis 0 0 0   XYZ
    dof rx ry rz
    limits (-20.0 45.0)
           (-30.0 30.0)
           (-30.0 30.0)
  end
  begin
     id 16
     name head
     direction 0.032989 0.997338 -0.0650226  
     length 1.61681  
     axis 0 0 0   XYZ
    dof rx ry rz
    limits (-20.0 45.0)
           (-30.0 30.0)
           (-30.0 30.0)
  end
  begin
     id 17 
     name lclavicle
     direction 0.954279 0.298875 -0.00496069  
     length 2.99449  
     axis 0 0 0   XYZ
    dof ry rz
    limits (-20.0 10.0)
           (0.0 20.0)
  end
  begin
     id 18 
     name lhumerus
     direction 1 -4.48985e-011 -4.2057e-027   
     length 4.79185   
     axis 180 -30 -90   XYZ
    dof rx ry rz
    limits (-60.0 90.0)
           (-90.0 90.0)
           (-90.0 90.0)
  end
  begin
     id 19
     name lradius
     direction 1 -4.48945e-011 1.15441e-028   
     length 2.65553   
     axis 180 -30 -90   XYZ
    dof rx
    limits (-10.0 170.0)
  end
  begin
     id 20
     name lwrist
     direction 1 -4.4899e-011 4.8894e-028   
     length 1.32777   
     axis -2.56392e-016 90 90   XYZ
    dof ry
    limits (-180.0 0.0)
 end
  begin
     id 21 
     name lhand
     direction 1 -4.48908e-011 9.7788e-028   
     length 0.743904   
     axis -6.23971e-016 90 90   XYZ
    dof rx rz
    limits (-90.0 90.0)
           (-45.0 45.0)
  end
  begin
     id 22 
     name lfingers
     direction 1 -4.49068e-011 1.95576e-027   
     length 0.599754   
     axis -1.24794e-015 90 90   XYZ
    dof rx
    limits (0.0 90.0)
  end
  begin
     id 23
     name lthumb
     direction 0.707107 -6.34883e-011 0.707107   
     length 0.861131   
     axis -90 45 2.85299e-015   XYZ
    dof rx rz
    limits (-45.0 45.0)
           (-45.0 45.0)
  end
  begin
     id 24 
     name rclavicle
     direction -0.957921 0.286916 0.00811568   
     length 3.06817  
     axis 0 0 0   XYZ 
    dof ry rz
    limits (-10.0 20.0)
           (-20.0 0.0)
  end
  begin
     id 25 
     name rhumerus
     direction -1 -4.48971e-011 -3.07942e-027  
     length 4.77254   
     axis 180 30 90   XYZ
    dof rx ry rz
    limits (-90.0 60.0)
           (-90.0 90.0)
           (-90.0 90.0)
  end
  begin
     id 26 
     name rradius
     direction -1 -4.48957e-011 -9.6815e-028   
     length 2.75995   
     axis 180 30 90   XYZ
    dof rx
    limits (-10.0 170.0)
  end
  begin
     id 27 
     name rwrist
     direction -1 -4.48979e-011 4.8894e-028   
     length 1.37997   
     axis -2.56392e-016 -90 -90   XYZ
    dof ry
    limits (-180.0 0.0)
  end
  begin
     id 28
     name rhand
     direction -1 -4.48906e-011 9.7788e-028   
     length 0.701619   
     axis -6.23971e-016 -90 -90   XYZ
    dof rx rz
    limits (-90.0 90.0)
           (-45.0 45.0)
  end
  begin
     id 29
     name rfingers
     direction -1 -4.49018e-011 1.95576e-027   
     length 0.565663   
     axis -1.24794e-015 -90 -90   XYZ
    dof rx
    limits (0.0 90.0)
  end
  begin
     id 30
     name rthumb
     direction -0.707107 -6.34881e-011 0.707107   
     length 0.812183   
     axis -90 -45 -2.85299e-015   XYZ
    dof rx rz
    limits (-45.0 45.0)
           (-45.0 45.0)
  end
:hierarchy
  begin
    root lhipjoint rhipjoint lowerback
    lhipjoint lfemur
    lfemur ltibia
    ltibia lfoot
    lfoot ltoes
    rhipjoint rfemur
    rfemur rtibia
    rtibia rfoot
    rfoot rtoes
    lowerback upperback
    upperback thorax
    thorax lowerneck lclavicle rclavicle
    lowerneck upperneck
    upperneck head
    lclavicle lhumerus
    lhumerus lradius
    lradius lwrist
    lwrist lhand lthumb
    lhand lfingers
    rclavicle rhumerus
    rhumerus rradius
    rradius rwrist
    rwrist rhand rthumb
    rhand rfingers
  end

#!OML:ASF F:\VICON\USERDATA\INSTALL\rory3\rory3.ASF
:FULLY-SPECIFIED
:DEGREES
556
root 0.170196 15.5447 -1.05975 -3.75934 0.948406 0.972346
lowerback 14.9724 -0.26589 -1.98827
upperback 0.597377 -0.732324 -0.506422
thorax -7.75622 -0.292187 0.74246
lowerneck -9.75302 -9.80411 -15.1297
upperneck 19.3763 -13.1432 10.4856
head 9.42574 -6.34989 4.4733
rclavicle -1.86361e-016 2.38542e-015
rhumerus 21.1181 35.8767 -42.9924
rradius 76.2046
rwrist -9.42236
rhand 19.2854 8.85018
rfingers 7.12502
rthumb 43.8689 -15.0814
lclavicle -1.86361e-016 2.38542e-015
lhumerus 14.0897 -26.4659 55.0202
lradius 75.5916
lwrist 12.5556
lhand 12.4194 24.0922
lfingers 7.12502
lthumb 37.4173 50.0477
rfemur -13.5955 -0.377757 15.3305
rtibia 39.6356
rfoot -17.3247 -7.01326
rtoes -10.6448
lfemur -11.4616 0.38071 -17.6876
ltibia 34.3233
lfoot -13.3899 -0.0465847
ltoes -9.9238
557
root 0.170527 15.5409 -1.06544 -3.70906 1.05263 1.09762
lowerback 14.9801 -0.272592 -2.05724
upperback 0.569918 -0.759423 -0.577934
thorax -7.78962 -0.303626 0.711153
lowerneck -9.87258 -9.80878 -15.1032
upperneck 19.3354 -13.1435 10.5289
head 9.43479 -6.33991 4.47901
rclavicle -1.69837e-014 4.17448e-015
rhumerus 20.2777 35.4499 -44.7425
rradius 76.3269
rwrist -8.66311
rhand 20.2578 8.89324
rfingers 7.12502
rthumb 44.7751 -14.6944
lclavicle -1.69837e-014 4.17448e-015
lhumerus 13.8612 -26.3664 55.95
lradius 75.9019
lwrist 11.7964
lhand 12.7935 24.5464
lfingers 7.12502
lthumb 37.7708 50.4076
rfemur -13.7564 -0.511198 15.179
rtibia 39.794
rfoot -17.3077 -7.0946
rtoes -11.2408
lfemur -11.5645 0.408992 -17.8317
ltibia 34.3474
lfoot -13.3897 -0.114966
ltoes -9.85951
558
root 0.169605 15.5403 -1.06909 -3.69163 1.13612 0.990372
lowerback 14.9901 -0.303263 -1.93198
upperback 0.556034 -0.77862 -0.571589
thorax -7.81118 -0.317046 0.651259
lowerneck -10.0294 -9.80882 -15.038
upperneck 19.3327 -13.1298 10.5165
head 9.45504 -6.32428 4.45992
rclavicle -1.28962e-014 9.14409e-015
rhumerus 19.4579 34.9201 -46.4954
rradius 76.3774
rwrist -7.54588
rhand 21.1655 8.82852
rfingers 7.12502
rthumb 45.6192 -14.4229
lclavicle -1.28962e-014 9.14409e-015
lhumerus 13.5758 -26.2732 56.9052
lradius 76.4134
lwrist 11.2487
lhand 12.8776 25.3634
lfingers 7.12502
lthumb 37.8503 51.2032
rfemur -13.8682 -0.581491 15.3064
rtibia 39.9563
rfoot -17.3499 -7.20666
rtoes -12.1104
lfemur -11.6058 0.430488 -17.707
ltibia 34.3305
lfoot -13.3307 -0.239787
ltoes -9.97356
559
root 0.168868 15.5394 -1.07169 -3.62891 1.27851 1.18178
lowerback 14.9287 -0.306498 -2.11592
upperback 0.546864 -0.817759 -0.633084
thorax -7.7842 -0.330678 0.697538
lowerneck -10.1319 -9.8211 -15.0052
upperneck 19.2243 -13.1293 10.5217
head 9.43418 -6.31745 4.45161
rclavicle 6.41081e-015 -1.17283e-014
rhumerus 18.6948 34.2821 -48.1264
rradius 76.3833
rwrist -6.1947
rhand 22.3093 8.95687
rfingers 7.12502
rthumb 46.68 -13.8491
lclavicle 6.41081e-015 -1.17283e-014
lhumerus 13.2942 -26.0904 57.9728
lradius 76.7941
lwrist 10.4765
lhand 13.2493 25.9378
lfingers 7.12502
lthumb 38.2012 51.682
rfemur -13.9993 -0.714241 15.0798
rtibia 40.1214
rfoot -17.4046 -7.24836
rtoes -12.7063
lfemur -11.6816 0.353682 -17.9237
ltibia 34.2929
lfoot -13.2899 -0.317721
ltoes -9.72809
560
root 0.169578 15.5385 -1.07455 -3.53024 1.44492 1.64641
lowerback 14.8175 -0.294166 -2.57778
upperback 0.538138 -0.884676 -0.734638
thorax -7.72468 -0.348887 0.863597
lowerneck -10.1375 -9.83119 -15.1157
upperneck 18.9972 -13.1214 10.6123
head 9.37028 -6.31305 4.50008
rclavicle -9.83984e-015 1.33186e-014
rhumerus 18.0367 33.8539 -49.5316
rradius 76.5151
rwrist -5.01358
rhand 23.0709 8.70904
rfingers 7.12502
rthumb 47.3843 -13.786
lclavicle -9.83984e-015 1.33186e-014
lhumerus 13.0001 -26.0312 58.9921
lradius 76.7911
lwrist 9.99022
lhand 12.9935 26.1722
lfingers 7.12502
lthumb 37.9597 51.9824
rfemur -14.1432 -0.910774 14.5273
rtibia 40.2568
rfoot -17.4585 -7.19687
rtoes -12.6596
lfemur -11.7941 0.26128 -18.4585
ltibia 34.2674
lfoot -13.2573 -0.335042
ltoes -9.71932
561
root 0.167076 15.5364 -1.07641 -3.49589 1.51395 1.80347
lowerback 14.7682 -0.257515 -2.75849
upperback 0.526904 -0.866525 -0.752134
thorax -7.70756 -0.33403 0.942854
lowerneck -10.095 -9.85767 -15.2186
upperneck 18.7773 -13.146 10.7032
head 9.3043 -6.32493 4.5444
rclavicle -1.93815e-015 -2.18663e-014
rhumerus 17.2952 33.5541 -50.8872
rradius 76.8361
rwrist -3.92842
rhand 23.4341 8.11729
rfingers 7.12502
rthumb 47.7197 -14.2253
lclavicle -1.93815e-015 -2.18663e-014
lhumerus 12.681 -26.1793 59.9648
lradius 76.7229
lwrist 9.8146
lhand 12.2959 26.5618
lfingers 7.12502
lthumb 37.3005 52.548
rfemur -14.2208 -0.931805 14.3506
rtibia 40.3721
rfoot -17.5258 -7.21745
rtoes -12.4353
lfemur -11.8603 0.280462 -18.6215
ltibia 34.2743
lfoot -13.2162 -0.363598
ltoes -9.85236
562
root 0.161931 15.533 -1.07583 -3.57385 1.53558 1.61138
lowerback 14.7816 -0.237063 -2.59841
upperback 0.550176 -0.807787 -0.695658
thorax -7.69318 -0.31066 0.90023
lowerneck -10.0814 -9.87289 -15.2495
upperneck 18.5893 -13.1677 10.7976
head 9.24918 -6.3293 4.57828
rclavicle -7.19352e-015 -2.32578e-014
rhumerus 16.5187 33.2194 -52.3319
rradius 77.2218
rwrist -2.73646
rhand 23.8712 7.38325
rfingers 7.12502
rthumb 48.1228 -14.772
lclavicle -7.19352e-015 -2.32578e-014
lhumerus 12.4236 -26.4192 60.7342
lradius 77.1518
lwrist 9.73452
lhand 11.8616 27.2681
lfingers 7.12502
lthumb 36.8898 53.361
rfemur -14.1701 -0.874723 14.5954
rtibia 40.4544
rfoot -17.5565 -7.30323
rtoes -12.2596
lfemur -11.8273 0.310166 -18.3661
ltibia 34.3516
lfoot -13.1993 -0.509855
ltoes -9.51754
563
root 0.156199 15.5267 -1.07463 -3.64389 1.53612 1.48862
lowerback 14.7872 -0.213612 -2.52837
upperback 0.551363 -0.762531 -0.66414
thorax -7.69696 -0.290625 0.884748
lowerneck -10.0628 -9.84934 -15.2606
upperneck 18.4375 -13.1497 10.923
head 9.20066 -6.31152 4.62669
rclavicle 4.31114e-015 2.08724e-014
rhumerus 15.8002 32.8809 -53.8355
rradius 77.4589
rwrist -1.46668
rhand 24.3025 6.91696
rfingers 7.12502
rthumb 48.52 -15.0495
lclavicle 4.31114e-015 2.08724e-014
lhumerus 12.2337 -26.6459 61.3993
lradius 77.6945
lwrist 9.57322
lhand 11.6621 27.8068
lfingers 7.12502
lthumb 36.701 53.948
rfemur -14.1132 -0.752281 14.7599
rtibia 40.524
rfoot -17.6917 -7.28562
rtoes -11.4502
lfemur -11.8336 0.400174 -18.1821
ltibia 34.503
lfoot -13.2507 -0.698803
ltoes -9.28252
564
root 0.151861 15.5199 -1.0747 -3.66992 1.54891 1.40533
lowerback 14.7776 -0.191878 -2.49006
upperback 0.524921 -0.725982 -0.644874
thorax -7.72143 -0.273439 0.875925
lowerneck -10.0722 -9.83211 -15.1738
upperneck 18.3348 -13.1327 10.932
head 9.15862 -6.29682 4.618
rclavicle -3.72721e-015 0
rhumerus 15.131 32.6161 -55.2212
rradius 77.5717
rwrist -0.315478
rhand 24.3527 7.06656
rfingers 7.12502
rthumb 48.5662 -14.8777
lclavicle -3.72721e-015 0
lhumerus 12.0883 -26.5241 62.2155
lradius 77.6471
lwrist 8.61944
lhand 12.4549 27.6457
lfingers 7.12502
lthumb 37.4508 53.5923
rfemur -14.1238 -0.702432 14.865
rtibia 40.594
rfoot -17.8034 -7.21695
rtoes -10.9054
lfemur -11.9183 0.476251 -18.0594
ltibia 34.685
lfoot -13.32 -0.783698
ltoes -9.37818
565
root 0.147723 15.5127 -1.0748 -3.70818 1.55393 1.35892
lowerback 14.7741 -0.168116 -2.50508
upperback 0.510686 -0.694358 -0.60928
thorax -7.7352 -0.256617 0.915736
lowerneck -10.0678 -9.82264 -15.1807
upperneck 18.1616 -13.1112 10.9704
head 9.09853 -6.28418 4.63493
rclavicle -1.55301e-015 1.78906e-015
rhumerus 14.5288 32.3554 -56.5268
rradius 77.6624
rwrist 0.751208
rhand 24.6037 7.40795
rfingers 7.12502
rthumb 48.797 -14.4242
lclavicle -1.55301e-015 1.78906e-015
lhumerus 11.8715 -26.3933 63.1555
lradius 77.5214
lwrist 7.94247
lhand 12.8051 27.751
lfingers 7.12502
lthumb 37.7818 53.6092
rfemur -14.1373 -0.661555 14.937
rtibia 40.6903
rfoot -17.8704 -7.25671
rtoes -10.8897
lfemur -11.9912 0.540214 -17.9769
ltibia 34.8835
lfoot -13.4222 -0.887767
ltoes -9.14261
566
root 0.144058 15.5073 -1.07293 -3.81189 1.54353 1.34811
lowerback 14.7899 -0.13543 -2.53639
upperback 0.534347 -0.655304 -0.596579
thorax -7.71938 -0.2367 0.938828
lowerneck -10.0792 -9.80509 -15.194
upperneck 17.9543 -13.0869 11.0777
head 9.0348 -6.26423 4.6765
rclavicle 6.43565e-015 -4.77083e-015
rhumerus 13.9719 31.9578 -57.8428
rradius 77.7811
rwrist 1.93639
rhand 25.31 7.62599
rfingers 7.12502
rthumb 49.4456 -13.8831
lclavicle 6.43565e-015 -4.77083e-015
lhumerus 11.6487 -26.6513 63.9321
lradius 77.7582
lwrist 8.12737
lhand 11.6316 28.2874
lfingers 7.12502
lthumb 36.6722 54.436
rfemur -14.0658 -0.598389 14.9662
rtibia 40.8222
rfoot -17.9816 -7.25739
rtoes -10.4541
lfemur -11.9777 0.618604 -17.9363
ltibia 35.0763
lfoot -13.5103 -0.938714
ltoes -9.22144
567
root 0.140455 15.5009 -1.07126 -3.95566 1.52686 1.22218
lowerback 14.8504 -0.124241 -2.44458
upperback 0.548961 -0.624136 -0.565992
thorax -7.73918 -0.224197 0.913357
lowerneck -10.047 -9.76573 -15.1615
upperneck 17.7396 -13.0438 11.1752
head 8.95381 -6.23519 4.71218
rclavicle 3.55328e-015 5.56597e-015
rhumerus 13.405 31.6651 -59.1449
rradius 77.9325
rwrist 2.78668
rhand 25.7493 7.4268
rfingers 7.12502
rthumb 49.8482 -13.8753
lclavicle 3.55328e-015 5.56597e-015
lhumerus 11.3388 -26.7183 64.75
lradius 77.9118
lwrist 7.71724
lhand 11.384 28.1945
lfingers 7.12502
lthumb 36.4378 54.4023
rfemur -14.0065 -0.614462 15.1275
rtibia 40.9899
rfoot -17.9924 -7.38519
rtoes -11.359
lfemur -11.9237 0.715449 -17.7671
ltibia 35.2396
lfoot -13.554 -0.982339
ltoes -9.67593
